<?xml version="1.0" encoding="UTF-8"?>
<svg id="Layer_1" data-name="Layer 1" xmlns="http://www.w3.org/2000/svg" viewBox="0 0 25 25">
  <defs>
    <style>
      .cls-1 {
        stroke-width: 0px;
      }
    </style>
  </defs>
  <path class="cls-1" d="M21.92,14.07s-.02.09-.03.13c-.03,1.03,0,2.08.5,3.01.63,1,1.14,1.35.25,2.62-4.94,6.84-15.06,6.9-20.13.16-.81-.87-.69-1.56-.01-2.48.66-1.02.74-2.18.73-3.36,0-.13-.04-.16-.11-.04-.29.49-.55.93-.8,1.36-.2.42-.66.68-1.11.64-.48-.03-.75-.25-.86-.74C-.31,12.84,0,10.06.97,7.68,7.21-6.31,27.71.36,24.7,15.25c-.07.36-.21.78-.63.82-.47.09-.96,0-1.2-.45-.31-.48-.59-.99-.88-1.48,0-.03-.05-.07-.07-.07h0ZM14.81,11.19c.02-.09.17-.02.23.05.34.31.75.58,1.19.72,1.69.57,3.64-.97,3.91-2.64.04-.32.07-.65.22-.94.11-.27.36-.48.55-.7.14-.19.23-.43.32-.67.07-.16.08-.37-.09-.47-.1-.07-.22-.1-.33-.13-1.09-.27-2.2-.35-3.31-.36-.52-.01-1.02.06-1.54.06-1.2-.08-.98-1.95-1.08-2.81-.05-1-.13-1.89-.98-2.54-.82-.69-2.28-.59-3.04.17-.94.95-.7,2.42-.84,3.65-.08,1.19-.49,1.66-1.67,1.54-1.49-.08-3.02-.02-4.46.38-.41.21-.09.68.08.94.18.28.35.56.53.84.28.42.25.98.44,1.45.19.55.48,1.04.93,1.45,1.07,1.02,2.71,1.19,3.82.26.12-.07.24-.25.37-.19.05.06,0,.15-.03.22-.41.8-.79,1.62-1.28,2.38-.4.62-.82,1.23-1.16,1.89-.86,1.63-.89,3.6-.26,5.3,1.06,3.05,5.04,4.68,7.77,2.96,2.33-1.36,3.53-4.25,2.78-6.84-.41-1.62-1.55-2.93-2.29-4.42-.25-.45-.49-.91-.73-1.37-.03-.05-.06-.12-.04-.17Z"/>
  <path class="cls-1" d="M5.03,8.27c-.02-.96.03-1.54,1.08-1.72,1.06-.21,2.12-.22,3.17-.04.79.14,1.72.28,1.93,1.21.22.95-1.01,2.76-1.73,3.35-.93.7-2.46.63-3.35-.06-.82-.65-1.15-1.68-1.11-2.72v-.02Z"/>
  <path class="cls-1" d="M19.8,8.58c.08.85-.16,1.75-.8,2.36-1.24,1.24-3.62.98-4.37-.63-.28-.47-.58-.92-.83-1.41-.18-.34-.26-.76-.16-1.08.21-.85,1.24-1.02,2-1.16,1.19-.21,2.42-.18,3.59.21.38.13.55.34.57.81.02.31,0,.58.01.9Z"/>
  <path class="cls-1" d="M11.66,14.01c.49-.11,1.01-.13,1.51-.05.58.12,1.58.18,1.79.79.1.3-.11.68-.29.94-1.12,1.69-3.5,1.51-4.41-.23-.65-1.13.58-1.23,1.38-1.44h.01Z"/>
</svg>